<svg id="visual" viewBox="0 0 900 250" width="900" height="250" xmlns="http://www.w3.org/2000/svg" xmlns:xlink="http://www.w3.org/1999/xlink" version="1.1"><g stroke-width="1" stroke-linejoin="bevel"><path d="M431 136.7L388 120L405 148.7Z" fill="#034555" stroke="#034555"></path><path d="M388 120L402 154L405 148.7Z" fill="#00636e" stroke="#00636e"></path><path d="M405 148.7L423 188.3L431 136.7Z" fill="#007277" stroke="#007277"></path><path d="M431 136.7L420 98L388 120Z" fill="#063747" stroke="#063747"></path><path d="M431 136.7L434 99.3L420 98Z" fill="#00817e" stroke="#00817e"></path><path d="M402 154L423 188.3L405 148.7Z" fill="#009183" stroke="#009183"></path><path d="M388 53.3L378 60.3L420 98Z" fill="#00817e" stroke="#00817e"></path><path d="M420 98L378 60.3L388 120Z" fill="#009183" stroke="#009183"></path><path d="M415 35.7L388 53.3L420 98Z" fill="#007277" stroke="#007277"></path><path d="M313 90.3L343 167.7L388 120Z" fill="#00817e" stroke="#00817e"></path><path d="M388 120L343 167.7L402 154Z" fill="#00101c" stroke="#00101c"></path><path d="M402 154L354 186.7L423 188.3Z" fill="#00636e" stroke="#00636e"></path><path d="M343 167.7L354 186.7L402 154Z" fill="#005462" stroke="#005462"></path><path d="M434 99.3L415 35.7L420 98Z" fill="#005462" stroke="#005462"></path><path d="M358 229.3L422 226.3L423 188.3Z" fill="#00636e" stroke="#00636e"></path><path d="M423 188.3L509 151.7L431 136.7Z" fill="#00817e" stroke="#00817e"></path><path d="M466 215.3L509 151.7L423 188.3Z" fill="#034555" stroke="#034555"></path><path d="M431 136.7L509 151.7L434 99.3Z" fill="#00101c" stroke="#00101c"></path><path d="M434 99.3L456 16.7L415 35.7Z" fill="#063747" stroke="#063747"></path><path d="M344 40.7L313 90.3L378 60.3Z" fill="#072a39" stroke="#072a39"></path><path d="M378 60.3L313 90.3L388 120Z" fill="#00817e" stroke="#00817e"></path><path d="M344 40.7L378 60.3L388 53.3Z" fill="#072a39" stroke="#072a39"></path><path d="M422 226.3L466 215.3L423 188.3Z" fill="#00817e" stroke="#00817e"></path><path d="M361 0L344 40.7L388 53.3Z" fill="#00817e" stroke="#00817e"></path><path d="M509 151.7L522 113L434 99.3Z" fill="#072a39" stroke="#072a39"></path><path d="M361 0L335 38.7L344 40.7Z" fill="#009183" stroke="#009183"></path><path d="M344 40.7L335 38.7L313 90.3Z" fill="#16a085" stroke="#16a085"></path><path d="M306 178.3L358 229.3L354 186.7Z" fill="#00101c" stroke="#00101c"></path><path d="M354 186.7L358 229.3L423 188.3Z" fill="#00101c" stroke="#00101c"></path><path d="M306 178.3L354 186.7L343 167.7Z" fill="#00636e" stroke="#00636e"></path><path d="M294 144L306 178.3L343 167.7Z" fill="#16a085" stroke="#16a085"></path><path d="M313 90.3L294 144L343 167.7Z" fill="#063747" stroke="#063747"></path><path d="M522 113L504 54.3L434 99.3Z" fill="#16a085" stroke="#16a085"></path><path d="M504 54.3L456 16.7L434 99.3Z" fill="#00101c" stroke="#00101c"></path><path d="M415 35.7L361 0L388 53.3Z" fill="#00101c" stroke="#00101c"></path><path d="M313 90.3L289 139L294 144Z" fill="#00101c" stroke="#00101c"></path><path d="M294 144L271 187.3L306 178.3Z" fill="#009183" stroke="#009183"></path><path d="M292 77.3L289 139L313 90.3Z" fill="#009183" stroke="#009183"></path><path d="M358 229.3L390 250L422 226.3Z" fill="#009183" stroke="#009183"></path><path d="M422 226.3L465 250L466 215.3Z" fill="#00101c" stroke="#00101c"></path><path d="M431 0L414 0L415 35.7Z" fill="#034555" stroke="#034555"></path><path d="M456 16.7L431 0L415 35.7Z" fill="#007277" stroke="#007277"></path><path d="M335 38.7L292 77.3L313 90.3Z" fill="#061d2a" stroke="#061d2a"></path><path d="M390 250L465 250L422 226.3Z" fill="#007277" stroke="#007277"></path><path d="M466 215.3L540 232.3L509 151.7Z" fill="#034555" stroke="#034555"></path><path d="M414 0L361 0L415 35.7Z" fill="#005462" stroke="#005462"></path><path d="M335 38.7L283 34.7L292 77.3Z" fill="#16a085" stroke="#16a085"></path><path d="M504 54.3L511 32.7L456 16.7Z" fill="#00636e" stroke="#00636e"></path><path d="M456 16.7L520 0L431 0Z" fill="#009183" stroke="#009183"></path><path d="M558 44.7L511 32.7L504 54.3Z" fill="#063747" stroke="#063747"></path><path d="M358 229.3L351 250L390 250Z" fill="#009183" stroke="#009183"></path><path d="M305 250L351 250L358 229.3Z" fill="#007277" stroke="#007277"></path><path d="M465 250L477 250L466 215.3Z" fill="#009183" stroke="#009183"></path><path d="M509 151.7L559 120L522 113Z" fill="#00636e" stroke="#00636e"></path><path d="M566 153.7L559 120L509 151.7Z" fill="#00817e" stroke="#00817e"></path><path d="M522 113L563 78.3L504 54.3Z" fill="#005462" stroke="#005462"></path><path d="M252 142.7L271 187.3L289 139Z" fill="#072a39" stroke="#072a39"></path><path d="M289 139L271 187.3L294 144Z" fill="#061d2a" stroke="#061d2a"></path><path d="M306 178.3L305 250L358 229.3Z" fill="#007277" stroke="#007277"></path><path d="M361 0L324 0L335 38.7Z" fill="#00636e" stroke="#00636e"></path><path d="M324 0L283 34.7L335 38.7Z" fill="#005462" stroke="#005462"></path><path d="M292 77.3L252 142.7L289 139Z" fill="#063747" stroke="#063747"></path><path d="M570 156.7L566 153.7L557 220.3Z" fill="#005462" stroke="#005462"></path><path d="M231 78.3L252 142.7L292 77.3Z" fill="#007277" stroke="#007277"></path><path d="M588 66.7L563 78.3L559 120Z" fill="#005462" stroke="#005462"></path><path d="M559 120L563 78.3L522 113Z" fill="#034555" stroke="#034555"></path><path d="M557 220.3L566 153.7L509 151.7Z" fill="#061d2a" stroke="#061d2a"></path><path d="M566 153.7L609 144L559 120Z" fill="#007277" stroke="#007277"></path><path d="M271 187.3L305 250L306 178.3Z" fill="#009183" stroke="#009183"></path><path d="M563 78.3L561 61.3L504 54.3Z" fill="#063747" stroke="#063747"></path><path d="M549 0L520 0L511 32.7Z" fill="#063747" stroke="#063747"></path><path d="M511 32.7L520 0L456 16.7Z" fill="#072a39" stroke="#072a39"></path><path d="M477 250L540 232.3L466 215.3Z" fill="#00101c" stroke="#00101c"></path><path d="M561 61.3L558 44.7L504 54.3Z" fill="#005462" stroke="#005462"></path><path d="M540 232.3L557 220.3L509 151.7Z" fill="#061d2a" stroke="#061d2a"></path><path d="M271 187.3L280 250L305 250Z" fill="#072a39" stroke="#072a39"></path><path d="M233 170.7L251 197.3L271 187.3Z" fill="#063747" stroke="#063747"></path><path d="M477 250L538 250L540 232.3Z" fill="#061d2a" stroke="#061d2a"></path><path d="M540 232.3L538 250L557 220.3Z" fill="#072a39" stroke="#072a39"></path><path d="M251 197.3L280 250L271 187.3Z" fill="#072a39" stroke="#072a39"></path><path d="M221 119L233 170.7L252 142.7Z" fill="#005462" stroke="#005462"></path><path d="M252 142.7L233 170.7L271 187.3Z" fill="#00636e" stroke="#00636e"></path><path d="M251 197.3L199 250L280 250Z" fill="#034555" stroke="#034555"></path><path d="M231 38.7L231 78.3L283 34.7Z" fill="#072a39" stroke="#072a39"></path><path d="M283 34.7L231 78.3L292 77.3Z" fill="#00636e" stroke="#00636e"></path><path d="M563 78.3L588 66.7L561 61.3Z" fill="#072a39" stroke="#072a39"></path><path d="M561 61.3L588 66.7L558 44.7Z" fill="#034555" stroke="#034555"></path><path d="M558 44.7L549 0L511 32.7Z" fill="#072a39" stroke="#072a39"></path><path d="M630 126L588 66.7L559 120Z" fill="#16a085" stroke="#16a085"></path><path d="M596 0L549 0L558 44.7Z" fill="#00636e" stroke="#00636e"></path><path d="M231 78.3L221 119L252 142.7Z" fill="#009183" stroke="#009183"></path><path d="M557 220.3L601 162.7L570 156.7Z" fill="#005462" stroke="#005462"></path><path d="M570 156.7L609 144L566 153.7Z" fill="#00817e" stroke="#00817e"></path><path d="M628 208.3L601 162.7L557 220.3Z" fill="#16a085" stroke="#16a085"></path><path d="M324 0L256 0L283 34.7Z" fill="#005462" stroke="#005462"></path><path d="M601 162.7L609 144L570 156.7Z" fill="#00817e" stroke="#00817e"></path><path d="M256 0L231 38.7L283 34.7Z" fill="#007277" stroke="#007277"></path><path d="M231 78.3L208 114L221 119Z" fill="#005462" stroke="#005462"></path><path d="M189 106.3L208 114L231 78.3Z" fill="#034555" stroke="#034555"></path><path d="M221 119L208 114L233 170.7Z" fill="#007277" stroke="#007277"></path><path d="M630 126L617 54.3L588 66.7Z" fill="#00636e" stroke="#00636e"></path><path d="M588 66.7L596 0L558 44.7Z" fill="#00817e" stroke="#00817e"></path><path d="M660 141L630 126L609 144Z" fill="#009183" stroke="#009183"></path><path d="M609 144L630 126L559 120Z" fill="#034555" stroke="#034555"></path><path d="M660 141L609 144L601 162.7Z" fill="#00817e" stroke="#00817e"></path><path d="M200 20.7L189 106.3L231 78.3Z" fill="#063747" stroke="#063747"></path><path d="M208 114L153 170.7L233 170.7Z" fill="#034555" stroke="#034555"></path><path d="M169 222.3L199 250L251 197.3Z" fill="#00817e" stroke="#00817e"></path><path d="M617 54.3L596 0L588 66.7Z" fill="#00636e" stroke="#00636e"></path><path d="M256 0L223 0L231 38.7Z" fill="#16a085" stroke="#16a085"></path><path d="M231 38.7L200 20.7L231 78.3Z" fill="#061d2a" stroke="#061d2a"></path><path d="M538 250L602 250L557 220.3Z" fill="#009183" stroke="#009183"></path><path d="M602 250L628 208.3L557 220.3Z" fill="#005462" stroke="#005462"></path><path d="M636 26.7L608 0L617 54.3Z" fill="#061d2a" stroke="#061d2a"></path><path d="M617 54.3L608 0L596 0Z" fill="#00101c" stroke="#00101c"></path><path d="M223 0L200 20.7L231 38.7Z" fill="#063747" stroke="#063747"></path><path d="M169 222.3L251 197.3L233 170.7Z" fill="#005462" stroke="#005462"></path><path d="M695 70.7L636 26.7L617 54.3Z" fill="#00817e" stroke="#00817e"></path><path d="M672 109.3L617 54.3L630 126Z" fill="#16a085" stroke="#16a085"></path><path d="M628 208.3L660 141L601 162.7Z" fill="#16a085" stroke="#16a085"></path><path d="M118 64.3L155 112.3L189 106.3Z" fill="#007277" stroke="#007277"></path><path d="M189 106.3L153 170.7L208 114Z" fill="#061d2a" stroke="#061d2a"></path><path d="M153 170.7L169 222.3L233 170.7Z" fill="#16a085" stroke="#16a085"></path><path d="M155 112.3L153 170.7L189 106.3Z" fill="#034555" stroke="#034555"></path><path d="M660 141L672 109.3L630 126Z" fill="#005462" stroke="#005462"></path><path d="M628 208.3L673 156.7L660 141Z" fill="#061d2a" stroke="#061d2a"></path><path d="M660 141L673 156.7L672 109.3Z" fill="#063747" stroke="#063747"></path><path d="M694 230.3L673 156.7L628 208.3Z" fill="#061d2a" stroke="#061d2a"></path><path d="M223 0L177 0L200 20.7Z" fill="#005462" stroke="#005462"></path><path d="M200 20.7L118 64.3L189 106.3Z" fill="#00101c" stroke="#00101c"></path><path d="M169 222.3L167 250L199 250Z" fill="#005462" stroke="#005462"></path><path d="M149 250L167 250L169 222.3Z" fill="#005462" stroke="#005462"></path><path d="M155 112.3L140 165.7L153 170.7Z" fill="#009183" stroke="#009183"></path><path d="M153 170.7L117 181.3L169 222.3Z" fill="#00101c" stroke="#00101c"></path><path d="M119 151L140 165.7L155 112.3Z" fill="#034555" stroke="#034555"></path><path d="M602 250L654 250L628 208.3Z" fill="#063747" stroke="#063747"></path><path d="M695 70.7L655 0L636 26.7Z" fill="#007277" stroke="#007277"></path><path d="M636 26.7L655 0L608 0Z" fill="#00101c" stroke="#00101c"></path><path d="M106 223.3L149 250L169 222.3Z" fill="#16a085" stroke="#16a085"></path><path d="M672 109.3L695 70.7L617 54.3Z" fill="#009183" stroke="#009183"></path><path d="M736 139L695 70.7L672 109.3Z" fill="#005462" stroke="#005462"></path><path d="M736 139L672 109.3L673 156.7Z" fill="#009183" stroke="#009183"></path><path d="M94 100L119 151L155 112.3Z" fill="#005462" stroke="#005462"></path><path d="M140 165.7L117 181.3L153 170.7Z" fill="#063747" stroke="#063747"></path><path d="M119 151L117 181.3L140 165.7Z" fill="#063747" stroke="#063747"></path><path d="M177 0L118 64.3L200 20.7Z" fill="#072a39" stroke="#072a39"></path><path d="M119 151L97 166.7L117 181.3Z" fill="#00636e" stroke="#00636e"></path><path d="M654 250L694 230.3L628 208.3Z" fill="#072a39" stroke="#072a39"></path><path d="M177 0L120 13.7L118 64.3Z" fill="#009183" stroke="#009183"></path><path d="M133 0L120 13.7L177 0Z" fill="#00636e" stroke="#00636e"></path><path d="M94 100L155 112.3L118 64.3Z" fill="#005462" stroke="#005462"></path><path d="M94 100L97 166.7L119 151Z" fill="#061d2a" stroke="#061d2a"></path><path d="M117 181.3L106 223.3L169 222.3Z" fill="#00101c" stroke="#00101c"></path><path d="M68 50.7L94 100L118 64.3Z" fill="#072a39" stroke="#072a39"></path><path d="M654 250L703 250L694 230.3Z" fill="#063747" stroke="#063747"></path><path d="M742 145.7L736 139L673 156.7Z" fill="#00636e" stroke="#00636e"></path><path d="M97 166.7L106 223.3L117 181.3Z" fill="#063747" stroke="#063747"></path><path d="M742 145.7L673 156.7L759 188.7Z" fill="#034555" stroke="#034555"></path><path d="M695 70.7L719 0L655 0Z" fill="#063747" stroke="#063747"></path><path d="M736 139L732 65.3L695 70.7Z" fill="#007277" stroke="#007277"></path><path d="M703 250L720 236.3L694 230.3Z" fill="#00817e" stroke="#00817e"></path><path d="M759 188.7L673 156.7L694 230.3Z" fill="#034555" stroke="#034555"></path><path d="M774 105.3L740 64.7L732 65.3Z" fill="#00636e" stroke="#00636e"></path><path d="M732 65.3L719 0L695 70.7Z" fill="#034555" stroke="#034555"></path><path d="M703 250L720 250L720 236.3Z" fill="#005462" stroke="#005462"></path><path d="M720 236.3L759 188.7L694 230.3Z" fill="#072a39" stroke="#072a39"></path><path d="M774 105.3L732 65.3L736 139Z" fill="#16a085" stroke="#16a085"></path><path d="M732 65.3L743 0L719 0Z" fill="#00101c" stroke="#00101c"></path><path d="M61 34.7L68 50.7L120 13.7Z" fill="#072a39" stroke="#072a39"></path><path d="M120 13.7L68 50.7L118 64.3Z" fill="#005462" stroke="#005462"></path><path d="M94 100L52 106L97 166.7Z" fill="#00636e" stroke="#00636e"></path><path d="M97 166.7L68 236.3L106 223.3Z" fill="#009183" stroke="#009183"></path><path d="M766 220.3L759 188.7L720 236.3Z" fill="#009183" stroke="#009183"></path><path d="M778 123L774 105.3L736 139Z" fill="#034555" stroke="#034555"></path><path d="M68 50.7L56 101.3L94 100Z" fill="#00101c" stroke="#00101c"></path><path d="M769 11.7L743 0L740 64.7Z" fill="#00101c" stroke="#00101c"></path><path d="M740 64.7L743 0L732 65.3Z" fill="#063747" stroke="#063747"></path><path d="M0 112.3L52 106L0 50.7Z" fill="#005462" stroke="#005462"></path><path d="M56 101.3L52 106L94 100Z" fill="#063747" stroke="#063747"></path><path d="M36 194.7L68 236.3L97 166.7Z" fill="#00101c" stroke="#00101c"></path><path d="M106 223.3L60 250L149 250Z" fill="#005462" stroke="#005462"></path><path d="M0 50.7L52 106L56 101.3Z" fill="#005462" stroke="#005462"></path><path d="M69 0L61 34.7L120 13.7Z" fill="#00101c" stroke="#00101c"></path><path d="M133 0L69 0L120 13.7Z" fill="#061d2a" stroke="#061d2a"></path><path d="M778 123L736 139L742 145.7Z" fill="#00101c" stroke="#00101c"></path><path d="M799 154L778 123L742 145.7Z" fill="#072a39" stroke="#072a39"></path><path d="M775 250L766 220.3L720 236.3Z" fill="#061d2a" stroke="#061d2a"></path><path d="M759 188.7L799 154L742 145.7Z" fill="#034555" stroke="#034555"></path><path d="M30 250L60 250L68 236.3Z" fill="#16a085" stroke="#16a085"></path><path d="M68 236.3L60 250L106 223.3Z" fill="#063747" stroke="#063747"></path><path d="M781 59.3L769 11.7L740 64.7Z" fill="#00817e" stroke="#00817e"></path><path d="M781 59.3L740 64.7L774 105.3Z" fill="#00101c" stroke="#00101c"></path><path d="M807 55.7L781 59.3L774 105.3Z" fill="#061d2a" stroke="#061d2a"></path><path d="M0 50.7L56 101.3L68 50.7Z" fill="#061d2a" stroke="#061d2a"></path><path d="M69 0L55 0L61 34.7Z" fill="#072a39" stroke="#072a39"></path><path d="M52 106L36 194.7L97 166.7Z" fill="#00817e" stroke="#00817e"></path><path d="M0 140L36 194.7L52 106Z" fill="#00636e" stroke="#00636e"></path><path d="M720 250L775 250L720 236.3Z" fill="#007277" stroke="#007277"></path><path d="M766 220.3L792 184.7L759 188.7Z" fill="#005462" stroke="#005462"></path><path d="M837 74.3L807 55.7L774 105.3Z" fill="#00817e" stroke="#00817e"></path><path d="M814 219.3L792 184.7L766 220.3Z" fill="#005462" stroke="#005462"></path><path d="M792 184.7L799 154L759 188.7Z" fill="#16a085" stroke="#16a085"></path><path d="M807 55.7L787 0L769 11.7Z" fill="#034555" stroke="#034555"></path><path d="M769 11.7L787 0L743 0Z" fill="#034555" stroke="#034555"></path><path d="M807 55.7L769 11.7L781 59.3Z" fill="#16a085" stroke="#16a085"></path><path d="M0 205.3L30 250L36 194.7Z" fill="#063747" stroke="#063747"></path><path d="M36 194.7L30 250L68 236.3Z" fill="#007277" stroke="#007277"></path><path d="M837 74.3L774 105.3L778 123Z" fill="#005462" stroke="#005462"></path><path d="M0 50.7L68 50.7L61 34.7Z" fill="#009183" stroke="#009183"></path><path d="M0 112.3L0 140L52 106Z" fill="#00817e" stroke="#00817e"></path><path d="M775 250L814 219.3L766 220.3Z" fill="#063747" stroke="#063747"></path><path d="M852 183.3L828 144.7L799 154Z" fill="#009183" stroke="#009183"></path><path d="M799 154L828 144.7L778 123Z" fill="#072a39" stroke="#072a39"></path><path d="M775 250L806 250L814 219.3Z" fill="#072a39" stroke="#072a39"></path><path d="M0 140L0 193.7L36 194.7Z" fill="#007277" stroke="#007277"></path><path d="M0 0L0 50.7L61 34.7Z" fill="#00817e" stroke="#00817e"></path><path d="M0 193.7L0 205.3L36 194.7Z" fill="#009183" stroke="#009183"></path><path d="M852 183.3L799 154L792 184.7Z" fill="#007277" stroke="#007277"></path><path d="M0 205.3L0 250L30 250Z" fill="#00636e" stroke="#00636e"></path><path d="M55 0L0 0L61 34.7Z" fill="#063747" stroke="#063747"></path><path d="M828 144.7L837 74.3L778 123Z" fill="#063747" stroke="#063747"></path><path d="M807 55.7L830 0L787 0Z" fill="#072a39" stroke="#072a39"></path><path d="M846 46.7L830 0L807 55.7Z" fill="#072a39" stroke="#072a39"></path><path d="M828 144.7L852 132L837 74.3Z" fill="#061d2a" stroke="#061d2a"></path><path d="M837 74.3L846 46.7L807 55.7Z" fill="#072a39" stroke="#072a39"></path><path d="M852 183.3L852 132L828 144.7Z" fill="#005462" stroke="#005462"></path><path d="M852 183.3L792 184.7L814 219.3Z" fill="#00101c" stroke="#00101c"></path><path d="M900 57.7L846 46.7L837 74.3Z" fill="#00101c" stroke="#00101c"></path><path d="M870 250L852 183.3L814 219.3Z" fill="#00636e" stroke="#00636e"></path><path d="M806 250L870 250L814 219.3Z" fill="#061d2a" stroke="#061d2a"></path><path d="M900 152L900 147.7L852 132Z" fill="#00101c" stroke="#00101c"></path><path d="M852 132L900 84.3L837 74.3Z" fill="#007277" stroke="#007277"></path><path d="M900 152L852 132L852 183.3Z" fill="#009183" stroke="#009183"></path><path d="M846 46.7L900 0L830 0Z" fill="#16a085" stroke="#16a085"></path><path d="M900 235.3L900 152L852 183.3Z" fill="#16a085" stroke="#16a085"></path><path d="M900 147.7L900 84.3L852 132Z" fill="#00101c" stroke="#00101c"></path><path d="M900 84.3L900 57.7L837 74.3Z" fill="#00817e" stroke="#00817e"></path><path d="M870 250L900 235.3L852 183.3Z" fill="#034555" stroke="#034555"></path><path d="M870 250L900 250L900 235.3Z" fill="#072a39" stroke="#072a39"></path><path d="M900 57.7L900 0L846 46.7Z" fill="#00817e" stroke="#00817e"></path></g></svg>